<svg width="1358" height="378" viewBox="0 0 1358 378" fill="none" xmlns="http://www.w3.org/2000/svg">
<g clip-path="url(#clip0_1_42)">
<path d="M355 182V195C355 290.545 277.545 368 182 368C86.4547 368 9 290.545 9 195V182C9 86.4548 86.4547 9 182 9C277.545 9 355 86.4547 355 182Z" fill="#273C4E"/>
<path d="M355 182V195C355 290.545 277.545 368 182 368C86.4547 368 9 290.545 9 195V182C9 86.4548 86.4547 9 182 9C277.545 9 355 86.4547 355 182Z" stroke="white" stroke-width="18"/>
<rect x="53" y="147" width="41" height="25" fill="white"/>
<rect x="269" y="147" width="41" height="25" fill="white"/>
<rect x="69" y="172" width="25" height="162" fill="white"/>
<rect x="269" y="172" width="25" height="162" fill="white"/>
<rect x="169" y="201" width="25" height="162" fill="white"/>
<rect x="119" y="199" width="25" height="158" fill="white"/>
<rect x="219" y="201" width="25" height="158" fill="white"/>
<path d="M182 225.5C139.198 225.5 104.5 190.802 104.5 148C104.5 105.198 139.198 70.5 182 70.5C224.802 70.5 259.5 105.198 259.5 148C259.5 190.802 224.802 225.5 182 225.5Z" fill="white"/>
<path d="M182 225.5C139.198 225.5 104.5 190.802 104.5 148C104.5 105.198 139.198 70.5 182 70.5C224.802 70.5 259.5 105.198 259.5 148C259.5 190.802 224.802 225.5 182 225.5Z" stroke="#273C4E" stroke-width="15"/>
<circle cx="180.5" cy="51.5" r="11.5" fill="white"/>
<circle cx="345.5" cy="18.5" r="18.5" fill="white"/>
<path d="M462.604 316V61.4545H558.058C577.613 61.4545 594.019 64.8518 607.277 71.6463C620.617 78.4408 630.685 87.9697 637.479 100.233C644.357 112.413 647.795 126.624 647.795 142.864C647.795 159.188 644.315 173.357 637.355 185.371C630.478 197.303 620.327 206.542 606.904 213.088C593.481 219.551 576.992 222.783 557.437 222.783H489.45V184.501H551.222C562.657 184.501 572.02 182.927 579.312 179.778C586.603 176.547 591.989 171.865 595.469 165.734C599.032 159.519 600.814 151.896 600.814 142.864C600.814 133.833 599.032 126.127 595.469 119.746C591.906 113.283 586.479 108.395 579.187 105.08C571.896 101.683 562.491 99.9844 550.974 99.9844H508.715V316H462.604ZM594.102 200.659L657.117 316H605.661L543.765 200.659H594.102ZM667.252 316V125.091H710.256V157.531H712.493C716.47 146.593 723.058 138.058 732.255 131.927C741.453 125.712 752.432 122.605 765.192 122.605C778.118 122.605 789.014 125.754 797.88 132.051C806.829 138.266 813.126 146.759 816.772 157.531H818.761C822.987 146.924 830.113 138.473 840.139 132.175C850.248 125.795 862.221 122.605 876.059 122.605C893.625 122.605 907.96 128.157 919.063 139.26C930.166 150.363 935.718 166.562 935.718 187.857V316H890.6V194.817C890.6 182.969 887.452 174.31 881.154 168.841C874.857 163.289 867.151 160.513 858.036 160.513C847.182 160.513 838.689 163.911 832.557 170.705C826.508 177.417 823.484 186.159 823.484 196.93V316H779.361V192.953C779.361 183.093 776.378 175.221 770.412 169.338C764.529 163.455 756.823 160.513 747.294 160.513C740.831 160.513 734.948 162.171 729.645 165.485C724.342 168.717 720.116 173.315 716.968 179.281C713.819 185.164 712.245 192.042 712.245 199.913V316H667.252ZM1015.3 319.853C1003.2 319.853 992.305 317.699 982.611 313.39C972.999 308.998 965.376 302.535 959.742 294.001C954.19 285.466 951.414 274.943 951.414 262.431C951.414 251.659 953.403 242.752 957.38 235.709C961.357 228.666 966.785 223.031 973.662 218.805C980.539 214.58 988.287 211.389 996.904 209.235C1005.6 206.998 1014.59 205.382 1023.88 204.388C1035.06 203.228 1044.13 202.192 1051.09 201.281C1058.05 200.286 1063.11 198.795 1066.26 196.806C1069.49 194.735 1071.11 191.544 1071.11 187.236V186.49C1071.11 177.127 1068.33 169.877 1062.78 164.739C1057.23 159.602 1049.23 157.033 1038.79 157.033C1027.77 157.033 1019.03 159.436 1012.56 164.242C1006.18 169.048 1001.88 174.724 999.639 181.27L957.629 175.304C960.943 163.704 966.412 154.009 974.035 146.22C981.658 138.348 990.98 132.465 1002 128.571C1013.02 124.594 1025.2 122.605 1038.54 122.605C1047.74 122.605 1056.89 123.682 1066.01 125.837C1075.12 127.991 1083.45 131.554 1090.99 136.526C1098.53 141.414 1104.58 148.085 1109.14 156.536C1113.78 164.988 1116.1 175.553 1116.1 188.23V316H1072.85V289.775H1071.35C1068.62 295.078 1064.77 300.049 1059.79 304.69C1054.91 309.247 1048.73 312.934 1041.28 315.751C1033.9 318.486 1025.24 319.853 1015.3 319.853ZM1026.98 286.792C1036.01 286.792 1043.84 285.01 1050.47 281.447C1057.1 277.802 1062.2 272.996 1065.76 267.03C1069.41 261.064 1071.23 254.559 1071.23 247.516V225.02C1069.82 226.18 1067.42 227.257 1064.02 228.251C1060.71 229.246 1056.98 230.116 1052.83 230.862C1048.69 231.607 1044.59 232.27 1040.53 232.85C1036.47 233.43 1032.95 233.927 1029.97 234.342C1023.25 235.253 1017.25 236.745 1011.94 238.816C1006.64 240.888 1002.46 243.788 999.39 247.516C996.324 251.162 994.791 255.885 994.791 261.685C994.791 269.971 997.816 276.227 1003.86 280.453C1009.91 284.679 1017.62 286.792 1026.98 286.792ZM1185.33 204.139V316H1140.34V125.091H1183.34V157.531H1185.58C1189.97 146.842 1196.97 138.348 1206.59 132.051C1216.28 125.754 1228.25 122.605 1242.51 122.605C1255.68 122.605 1267.16 125.422 1276.93 131.057C1286.79 136.691 1294.42 144.853 1299.8 155.542C1305.27 166.231 1307.97 179.198 1307.88 194.445V316H1262.89V201.405C1262.89 188.644 1259.57 178.66 1252.95 171.451C1246.4 164.242 1237.33 160.638 1225.73 160.638C1217.85 160.638 1210.85 162.378 1204.72 165.858C1198.67 169.255 1193.91 174.185 1190.43 180.648C1187.03 187.112 1185.33 194.942 1185.33 204.139Z" fill="white"/>
</g>
<defs>
<clipPath id="clip0_1_42">
<rect width="1358" height="378" fill="white"/>
</clipPath>
</defs>
</svg>
